<?xml version="1.0" standalone="no"?><!DOCTYPE svg PUBLIC "-//W3C//DTD SVG 1.1//EN" "http://www.w3.org/Graphics/SVG/1.1/DTD/svg11.dtd"><svg t="1481171737492" class="icon" style="" viewBox="0 0 1024 1024" version="1.1" xmlns="http://www.w3.org/2000/svg" p-id="6442" xmlns:xlink="http://www.w3.org/1999/xlink" width="200" height="200"><defs><style type="text/css"></style></defs><path d="M512.743671 0.397833C289.590101-9.313205 85.928869 160.03445 22.389889 368.639663-42.625717 572.317068 41.772243 814.182401 222.80934 929.518987c160.07418 108.743406 384.588854 126.271927 550.940139 21.40568 110.446932-64.816651 195.901932-171.755862 227.807678-296.473354C1055.116619 463.892083 997.958338 238.323006 837.184515 115.803728 745.848355 42.892697 630.090503-0.595206 512.743671 0.397833Zm-6.0e-06 95.692928C746.578045 86.078607 949.919338 315.461596 927.421802 545.265684 916.154661 691.960645 821.437095 828.809066 685.129914 886.100424 554.418555 946.336446 391.493517 938.260792 274.268348 851.454926 121.428178 750.28536 62.41763 540.91392 122.383576 370.671703 174.504964 206.516098 342.930081 95.2209 512.743664 96.090761ZM291.95216 246.732374C276.917071 261.767462 261.881989 276.802544 246.846901 291.837633 278.03849 323.070728 309.230086 354.303822 340.421676 385.536917 325.386588 400.572006 310.351506 415.607088 295.316417 430.642176 354.00308 444.223613 412.68975 457.805042 471.376414 471.386479 457.79499 412.699796 444.213573 354.01312 430.632149 295.326437 415.597061 310.361526 400.561979 325.396608 385.52689 340.431696 354.335314 309.198589 323.143737 277.965481 291.95216 246.732374ZM769.420076 249.971962C709.781561 264.463642 650.14311 278.955329 590.504608 293.447009 605.648162 308.590562 620.791721 323.734122 635.935275 338.877675 545.20256 429.61039 454.469839 520.34311 363.737125 611.075825 342.718581 584.276675 313.350618 550.275158 312.415085 601.55182 301.274533 647.792424 290.133975 694.033099 278.993423 740.27371 337.223765 727.19019 395.454101 714.106669 453.684443 701.023149 438.649348 685.988067 423.614253 670.952921 408.579158 655.917839 499.291114 565.164372 590.003069 474.410911 680.715024 383.657444 694.829222 397.771609 708.943355 411.885768 723.057552 425.999934 738.511705 367.323943 753.965922 308.647953 769.420076 249.971962ZM543.769106 543.654585c13.53988 58.686695 27.079766 117.373384 40.619646 176.060073 15.035095-15.035082 30.07019-30.070228 45.105285-45.10531 33.268228 33.226691 66.53645 66.453446 99.804672 99.680137 15.035082-15.035082 30.070164-30.070164 45.105246-45.105246C741.135733 695.957548 707.867511 662.730793 674.599289 629.504108 689.634371 614.469013 704.669517 599.433918 719.704599 584.398823 661.059441 570.817413 602.41427 557.235996 543.769106 543.654585Z" p-id="6443" fill="#9E9E9E"></path></svg>