<?xml version="1.0" standalone="no"?><!DOCTYPE svg PUBLIC "-//W3C//DTD SVG 1.1//EN" "http://www.w3.org/Graphics/SVG/1.1/DTD/svg11.dtd"><svg t="1481171606302" class="icon" style="" viewBox="0 0 1026 1024" version="1.1" xmlns="http://www.w3.org/2000/svg" p-id="3994" xmlns:xlink="http://www.w3.org/1999/xlink" width="200.390625" height="200"><defs><style type="text/css"></style></defs><path d="M1025.507748 511.801905c0.527289 282.353022-229.735329 512.319217-512.863607 512.198084C229.289271 1023.880279-0.054154 795.09692 0 511.685046 0.054154 230.23269 228.278872 0.347725 512.803753 0 795.326362-0.34345 1024.97761 228.847489 1025.507748 511.801905M405.104362 586.270718c-115.993497-73.810416-124.447214-223.226878-47.728161-311.378117 79.416775-91.255115 216.54314-95.212629 300.356362-11.014629 43.070921 43.26901 63.354427 96.443919 59.969805 157.486827-3.933287 70.963058-38.172838 124.916073-97.380212 164.908769 54.118328 21.125743 99.061835 53.700772 134.59538 98.877997 35.520719 45.160123 56.576632 96.433943 63.965797 153.657572 106.894207-94.665389 180.342646-272.682265 122.54755-459.648796C882.833453 189.598697 702.690321 54.537308 491.475645 64.179562 288.381212 73.45129 114.990223 218.722124 73.117815 421.277868c-20.364737 98.51317-8.466543 193.80988 34.83952 284.761448 24.02868 50.465786 56.776147 94.686765 98.483243 133.633435 7.476096-58.094368 28.469304-109.219977 63.841813-154.284618C305.794559 640.145353 350.746617 607.553223 405.104362 586.270718M516.919453 960.433221c6.373065-0.304972 17.189605-0.676924 27.986194-1.363825 43.680865-2.780378 85.930926-12.253045 126.85279-27.669821 33.353136-12.563718 64.723952-29.003718 94.083946-49.201718 1.983745-1.363825 4.142778-4.275312 4.129952-6.455721-0.153911-26.532588-3.937563-52.547863-11.958048-77.91044-35.291278-111.579949-142.038699-187.85152-261.57928-179.962144-61.035783 4.027344-114.229218 26.83471-158.681064 68.680041-53.043799 49.932797-79.96259 111.936225-82.522077 184.717716-0.218041 6.166425 1.667372 9.498319 6.629584 12.790309C337.829473 934.430771 421.336297 959.854628 516.919453 960.433221M512.823704 254.918343c-85.003183-0.294997-154.649445 69.822975-154.486983 155.534435 0.162462 85.721436 69.093321 155.106903 154.219063 155.238013 85.045936 0.132535 153.877038-68.922309 154.468457-154.970093C667.612809 325.240104 598.309998 255.217615 512.823704 254.918343" p-id="3995" fill="#9E9E9E"></path></svg>