<?xml version="1.0" standalone="no"?><!DOCTYPE svg PUBLIC "-//W3C//DTD SVG 1.1//EN" "http://www.w3.org/Graphics/SVG/1.1/DTD/svg11.dtd"><svg t="1481171489964" class="icon" style="" viewBox="0 0 1024 1024" version="1.1" xmlns="http://www.w3.org/2000/svg" p-id="2683" xmlns:xlink="http://www.w3.org/1999/xlink" width="200" height="200"><defs><style type="text/css"></style>
<filter id="dropshadow" height="130%">
	<feOffset result="offOut" in="SourceAlpha" dx="20" dy="20" />
	<feGaussianBlur result="blurOut" in="offOut" stdDeviation="30" />
	<feBlend in="SourceGraphic" in2="blurOut" mode="normal" />
</filter>
</defs><path d="M803.271 715.125v-89.857c0-93.68-76.204-169.92-169.92-169.92-40.159 0-72.818-32.659-72.818-72.818v-73.655c56.361-20.134 97.103-73.509 97.103-136.716 0-80.282-65.354-145.635-145.635-145.635s-145.635 65.354-145.635 145.635c0 63.205 40.741 116.545 97.103 136.642v73.692c0 40.159-32.659 72.818-72.818 72.818-93.68 0-169.92 76.204-169.92 169.92v89.857c-56.361 20.134-97.103 73.509-97.103 136.716 0 80.282 65.354 145.635 145.635 145.635s145.635-65.354 145.635-145.635c0-63.205-40.741-116.545-97.103-136.716v-89.857c0-40.159 32.659-72.818 72.818-72.818 47.514 0 90.476-19.77 121.35-51.373 30.875 31.603 73.837 51.373 121.35 51.373 40.159 0 72.818 32.659 72.818 72.818v89.857c-56.361 20.134-97.103 73.509-97.103 136.716 0 80.282 65.354 145.635 145.635 145.635s145.635-65.354 145.635-145.635c0-63.205-40.741-116.545-97.103-136.716zM269.262 900.373c-26.797 0-48.533-21.809-48.533-48.533s21.737-48.533 48.533-48.533 48.533 21.809 48.533 48.533-21.737 48.533-48.533 48.533zM512 123.627c26.797 0 48.533 21.809 48.533 48.533s-21.737 48.533-48.533 48.533-48.533-21.809-48.533-48.533 21.737-48.533 48.533-48.533zM754.738 900.373c-26.797 0-48.533-21.809-48.533-48.533s21.737-48.533 48.533-48.533 48.533 21.809 48.533 48.533-21.737 48.533-48.533 48.533z" p-id="2684" fill="#1296db" filter="url(#dropshadow)"></path></svg>