<?xml version="1.0" standalone="no"?><!DOCTYPE svg PUBLIC "-//W3C//DTD SVG 1.1//EN" "http://www.w3.org/Graphics/SVG/1.1/DTD/svg11.dtd"><svg t="1481171669208" class="icon" style="" viewBox="0 0 1024 1024" version="1.1" xmlns="http://www.w3.org/2000/svg" p-id="5992" xmlns:xlink="http://www.w3.org/1999/xlink" width="200" height="200"><defs><style type="text/css"></style>
<filter id="dropshadow" height="130%">
	<feOffset result="offOut" in="SourceAlpha" dx="20" dy="20" />
	<feGaussianBlur result="blurOut" in="offOut" stdDeviation="30" />
	<feBlend in="SourceGraphic" in2="blurOut" mode="normal" />
</filter>
</defs><path d="M806.946 554.784c-2.681-67.033-58.989-117.979-131.385-117.979v0c-32.174 2.681-64.353 16.090-85.804 40.22-2.681 5.363-8.043 8.043-10.724 13.405l-166.241-16.090c-2.681-32.174-18.77-58.989-40.22-77.758l69.713-126.022c8.043 2.681 16.090 2.681 26.815 2.681 69.713 0 126.022-56.308 126.022-123.342 0-69.713-56.308-123.342-126.022-123.342-69.713 0-126.022 56.308-126.022 123.342 0 34.858 13.405 64.353 34.858 85.804l-72.396 131.385c-8.043 0-16.090-2.681-24.132-2.681v0c-32.174 2.681-64.353 16.090-85.804 40.22s-34.858 56.308-32.174 88.485c2.681 67.033 58.989 117.979 123.342 117.979h5.363c32.174-2.681 64.353-16.090 85.804-40.22 8.043-8.043 13.405-16.090 18.77-26.815l158.197 13.405c0 2.681 0 5.363 0 5.363 0 24.132 10.724 48.265 24.132 67.033l-58.989 107.253c-2.681 0-8.043 0-10.724 0-69.713 0-126.022 56.308-126.022 123.342 0 69.713 56.308 123.342 126.022 123.342s126.022-56.308 126.022-123.342c0-40.22-18.77-75.077-48.265-96.527l50.947-88.485c13.405 5.363 26.815 8.043 42.901 8.043h5.363c32.174-2.681 64.353-16.090 85.804-40.22 26.815-24.132 37.537-56.308 34.858-88.485v0zM466.418 96.276c29.494 0 53.627 24.132 53.627 53.627s-24.132 53.627-53.627 53.627c-29.494 0-53.627-24.132-53.627-53.627 2.681-29.494 26.815-53.627 53.627-53.627v0zM326.988 525.29c-10.724 10.724-21.451 16.090-37.537 16.090h-2.681c-29.494 0-50.947-21.451-53.627-50.947 0-13.405 5.363-26.815 13.405-37.537 10.724-10.724 21.451-16.090 40.22-18.77 29.494 0 50.947 21.451 53.627 50.947 2.681 16.090-2.681 29.494-13.405 40.22v0zM512 916.762c-29.494 0-53.627-24.132-53.627-53.627s24.132-53.627 53.627-53.627c29.494 0 53.627 24.132 53.627 53.627 0 29.494-24.132 53.627-53.627 53.627v0zM721.145 595.002c-8.043 10.724-21.451 18.77-34.858 18.77h-2.681c-29.494 0-50.947-21.451-53.627-50.947 0-13.405 5.363-26.815 13.405-37.537 10.724-10.724 21.451-16.090 40.22-18.77 29.494 0 50.947 21.451 53.627 50.947 0 16.090-5.363 29.494-16.090 37.537v0zM721.145 595.002z" p-id="5993" fill="#1296db" filter="url(#dropshadow)"></path></svg>