<?xml version="1.0" standalone="no"?><!DOCTYPE svg PUBLIC "-//W3C//DTD SVG 1.1//EN" "http://www.w3.org/Graphics/SVG/1.1/DTD/svg11.dtd"><svg t="1481172111411" class="icon" style="" viewBox="0 0 1425 1024" version="1.1" xmlns="http://www.w3.org/2000/svg" p-id="8244" xmlns:xlink="http://www.w3.org/1999/xlink" width="278.3203125" height="200"><defs><style type="text/css"></style>
<filter id="dropshadow" height="130%">
	<feOffset result="offOut" in="SourceAlpha" dx="20" dy="20" />
	<feGaussianBlur result="blurOut" in="offOut" stdDeviation="30" />
	<feBlend in="SourceGraphic" in2="blurOut" mode="normal" />
</filter>
</defs><path d="M1391.35171 626.492701C1408.003473 635.191421 1416.33946 650.424743 1416.33946 672.171547L1416.33946 871.218145C1416.33946 885.353565 1412.691834 897.039836 1405.406689 906.298061 1398.121543 915.535177 1388.74482 920.159009 1377.296736 920.159009L1211.769331 920.159009 1211.769331 709.700617C1211.769331 682.506556 1205.262207 657.76165 1192.247968 635.465897 1179.233725 613.170145 1161.803941 596.575009 1139.938397 585.701608L985.343764 509.02829C970.773473 500.319009 956.708392 487.819878 943.178837 471.499215 960.881437 443.217814 974.673702 411.948866 984.565738 377.692371 994.457774 343.42532 999.398738 307.268619 999.398738 269.201155 999.398738 244.181773 997.317271 220.249732 993.154328 197.415588 988.99139 174.570886 982.746976 152.275134 974.410992 130.517773 987.950654 120.731711 1002.520946 112.845856 1018.142074 106.860206 1033.753101 100.885114 1049.889547 97.88701 1066.551416 97.88701 1091.539162 97.88701 1114.960754 103.598186 1136.81619 115.020536 1158.681734 126.442886 1177.687779 141.940124 1193.824225 161.522804 1209.950569 181.094928 1222.702102 204.203546 1232.068715 230.859216 1241.445438 257.50433 1246.133796 285.511258 1246.133796 314.88 1246.133796 356.209485 1237.282495 394.002474 1219.590002 428.269526 1201.877295 462.526019 1179.506541 488.907215 1152.437324 507.392L1391.35171 626.492701ZM273.268751 585.701608C250.372579 596.585565 232.417372 613.170145 219.40313 635.465897 206.388889 657.76165 199.881769 682.506556 199.881769 709.700617L199.881769 920.159009 39.042723 920.159009C27.584533 920.159009 18.217917 915.545734 10.932771 906.298061 3.647625 897.050392 0 885.364122 0 871.218145L0 672.171547C0 648.239505 8.325881 633.016743 24.987747 626.492701L267.02434 509.02829C237.873653 490.532949 214.452061 464.162308 196.759564 429.895258 179.056962 395.638763 170.205661 357.296825 170.205661 314.88 170.205661 285.511258 174.894022 257.50433 184.260638 230.859216 193.637358 204.203546 206.388889 181.094928 222.525336 161.522804 238.661782 141.940124 257.395014 126.442886 278.735137 115.020536 300.075259 103.598186 323.244245 97.88701 348.231993 97.88701 364.883755 97.88701 380.504885 100.610639 395.075178 106.04734 409.645469 111.484041 423.700445 118.557031 437.240106 127.255753 419.537505 172.934598 410.686204 220.249732 410.686204 269.201155 410.686204 307.268619 415.899984 343.974268 426.307335 379.318103 436.714687 414.672495 451.295081 446.479836 470.028315 474.761238 458.580226 487.819878 446.606723 498.144332 434.117901 505.766266L273.268751 585.701608ZM1107.150189 654.225154C1127.96489 665.109112 1138.382349 683.604453 1138.382349 709.700617L1138.382349 920.159009 1138.382349 957.688084C1138.382349 973.998187 1133.693988 988.144164 1124.327371 1000.104907 1114.950652 1012.06565 1102.987251 1018.051299 1088.406853 1018.051299L321.678091 1018.051299C308.148534 1018.051299 296.700448 1012.06565 287.323727 1000.104907 277.957111 988.144164 273.268751 973.998187 273.268751 957.688084L273.268751 920.159009 273.268751 709.700617C273.268751 683.604453 283.686207 665.109112 304.500909 654.225154L520.003807 549.808823 604.323564 509.02829C564.765522 484.008907 534.574102 448.116122 513.749295 401.349938 493.975325 360.020454 484.083289 315.96734 484.083289 269.201155 484.083289 255.055175 485.124025 241.458144 487.205496 228.410062 489.286968 215.361979 491.893858 202.852289 495.016061 190.88099 509.586352 135.416082 535.877547 89.737237 573.86943 53.844454 611.871419 17.95167 655.855108 0.005278 705.8306 0.005278 756.836726 0.005278 801.608544 18.490062 840.115743 55.470186 878.633049 92.450309 904.661531 139.216495 918.201193 195.779299 923.404867 222.973361 926.011757 247.443794 926.011757 269.201155 926.011757 312.70532 917.675774 354.573196 901.024011 394.825897 880.209306 443.766763 850.017885 480.746888 810.459844 505.766266L899.467959 549.808823 1107.150189 654.225154Z" p-id="8245" fill="#13227a" filter="url(#dropshadow)"></path></svg>