<?xml version="1.0" standalone="no"?><!DOCTYPE svg PUBLIC "-//W3C//DTD SVG 1.1//EN" "http://www.w3.org/Graphics/SVG/1.1/DTD/svg11.dtd"><svg t="1499152255151" class="icon" style="" viewBox="0 0 1024 1024" version="1.1" xmlns="http://www.w3.org/2000/svg" p-id="1186" xmlns:xlink="http://www.w3.org/1999/xlink" width="200" height="200"><defs><style type="text/css"></style></defs><path d="M512 32C246.875 32 32 246.875 32 512s214.875 480 480 480 480-214.875 480-480S777.125 32 512 32zM820.53125 820.4375c-40.03125 40.03125-86.71875 71.53125-138.65625 93.46875C628.0625 936.6875 570.875 948.21875 512 948.21875S395.9375 936.6875 342.21875 914c-51.9375-21.9375-98.625-53.4375-138.65625-93.46875s-71.53125-86.71875-93.46875-138.65625C87.3125 628.0625 75.78125 570.875 75.78125 512S87.3125 395.9375 110 342.21875c21.9375-51.9375 53.4375-98.625 93.46875-138.65625 40.03125-40.03125 86.71875-71.53125 138.65625-93.46875C395.9375 87.3125 453.125 75.78125 512 75.78125S628.0625 87.3125 681.78125 110c51.9375 21.9375 98.625 53.4375 138.65625 93.46875 40.03125 40.03125 71.53125 86.71875 93.46875 138.65625 22.78125 53.71875 34.21875 110.90625 34.21875 169.78125S936.6875 628.0625 914 681.78125C892.0625 733.71875 860.5625 780.40625 820.53125 820.4375z" p-id="1187" fill="#d81e06"></path><path d="M425.75 289.4375c-24.09375 0-43.78125 19.6875-43.78125 43.78125l0 350.25c0 24.09375 19.6875 43.78125 43.78125 43.78125s43.78125-19.6875 43.78125-43.78125L469.53125 333.21875C469.53125 309.125 449.84375 289.4375 425.75 289.4375z" p-id="1188" fill="#d81e06"></path><path d="M599.46875 289.4375c-24.09375 0-43.78125 19.6875-43.78125 43.78125l0 350.25c0 24.09375 19.6875 43.78125 43.78125 43.78125s43.78125-19.6875 43.78125-43.78125L643.25 333.21875C643.25 309.125 623.5625 289.4375 599.46875 289.4375z" p-id="1189" fill="#d81e06"></path></svg>