<?xml version="1.0" standalone="no"?><!DOCTYPE svg PUBLIC "-//W3C//DTD SVG 1.1//EN" "http://www.w3.org/Graphics/SVG/1.1/DTD/svg11.dtd"><svg t="1499152541848" class="icon" style="" viewBox="0 0 1024 1024" version="1.1" xmlns="http://www.w3.org/2000/svg" p-id="2883" xmlns:xlink="http://www.w3.org/1999/xlink" width="200" height="200"><defs><style type="text/css"></style></defs><path d="M512 33.516c-264.26 0-478.484 214.226-478.484 478.486 0 264.258 214.224 478.481 478.484 478.481s478.484-214.224 478.484-478.481c0-264.26-214.224-478.486-478.484-478.486zM814.948 817.765c0.095-0.001 0.192-0.001 0.286-0.002-77.828 77.188-184.96 124.875-303.234 124.875-118.523 0-225.859-47.886-303.727-125.361 0.038 0 0.076 0 0.112-0.001-5.607-4.884-10.576-10.004-14.82-15.366 66.942-111.334 179.062-170.289 318.434-170.289 143.235 0 242.004 61.973 318.433 170.293-4.443 5.543-9.631 10.825-15.485 15.851zM368.455 440.229c0-79.278 64.268-143.545 143.545-143.545s143.545 64.268 143.545 143.545-64.268 143.545-143.545 143.545-143.545-64.268-143.545-143.545zM620.845 597.662c49.875-34.546 82.548-92.169 82.548-157.433 0-105.704-85.689-191.396-191.394-191.396s-191.394 85.692-191.394 191.396c0 65.263 32.675 122.887 82.549 157.433-98.451 25.642-183.193 85.234-240.966 165.539-50.863-70.704-80.826-157.451-80.826-251.199 0-237.833 192.803-430.636 430.636-430.636s430.636 192.802 430.636 430.636c0 93.749-29.963 180.496-80.827 251.201-57.77-80.306-142.513-139.9-240.963-165.542z" p-id="2884" fill="#1296db"></path></svg>