<?xml version="1.0" standalone="no"?><!DOCTYPE svg PUBLIC "-//W3C//DTD SVG 1.1//EN" "http://www.w3.org/Graphics/SVG/1.1/DTD/svg11.dtd"><svg t="1499652044842" class="icon" style="" viewBox="0 0 1024 1024" version="1.1" xmlns="http://www.w3.org/2000/svg" p-id="961" xmlns:xlink="http://www.w3.org/1999/xlink" width="200" height="200"><defs><style type="text/css"></style></defs><path d="M850.5222792533333 631.5451585422221c43.20116736-27.183960746666667 72.05822122666666-75.16106752 72.05822122666666-129.86430577777776 0-77.06701824-57.111001315555555-141.02756693333333-131.22769578666666-151.83804643555553 0.027942684444444442 1.5205694577777777 0.057050453333333334 3.0423028622222223 0.057050453333333334 4.569858275555556 0 82.67659150222222-43.61216455111111 155.18655943111114-108.90350250666667 196.27103800888887 134.51217123555554 43.542306133333334 233.13378417777776 167.57582279111108 238.50234880000002 315.1083053511111l87.48163754666668 0 0-17.36080384C1008.4903389866668 747.1480149333332 942.0638139733335 661.1776318577778 850.5222792533333 631.5451585422221z" p-id="962" fill="#13227a"></path><path d="M338.4210716444445 550.6848676977777c-65.29133795555556-41.08447971555555-108.90350250666667-113.59561159111111-108.90350250666667-196.27103800888887 0-1.5275554133333333 0.027942684444444442-3.0492888177777777 0.057050453333333334-4.569858275555556-74.1166944711111 10.810479502222222-131.22769578666666 74.77219214222222-131.22769578666666 151.83804643555553 0 54.70323825777778 28.85705272888889 102.68034503111112 72.05822122666666 129.86430577777776-91.54036963555556 29.632473315555554-157.96805973333332 115.60285525333333-157.96805973333332 216.88604671999997l0 17.36080384 87.48163754666668 0C105.2884525511111 718.2606904888889 203.90890040888894 594.2260098844445 338.4210716444445 550.6848676977777z" p-id="963" fill="#13227a"></path><path d="M635.8006567822222 550.6848676977777c65.29133795555556-41.08447971555555 108.90466645333333-113.59444650666666 108.90466645333333-196.27103800888887 0-127.8931547022222-104.05421283555555-231.94736753777778-231.94736753777778-231.94736753777778-127.9024685511111 0-231.95551744 104.05421283555555-231.95551744 231.94736753777778 0 82.18525923555555 43.08357461333333 154.3424455111111 107.72989269333334 195.55616085333332-139.37659676444446 44.17801102222222-240.69704476444446 174.69897955555555-240.69704476444446 328.50584917333333l0 26.23971783111111 726.7122210133333 0 0-26.23971783111111C874.5463432533334 725.4013110044446 774.1503453866666 595.4694769777778 635.8006567822222 550.6848676977777z" p-id="964" fill="#13227a"></path></svg>