<?xml version="1.0" standalone="no"?><!DOCTYPE svg PUBLIC "-//W3C//DTD SVG 1.1//EN" "http://www.w3.org/Graphics/SVG/1.1/DTD/svg11.dtd"><svg t="1481171709857" class="icon" style="" viewBox="0 0 1024 1024" version="1.1" xmlns="http://www.w3.org/2000/svg" p-id="6152" xmlns:xlink="http://www.w3.org/1999/xlink" width="200" height="200"><defs><style type="text/css"></style></defs><path d="M512.273 45.818c-257.068 0-465.455 208.384-465.455 465.455s208.387 465.455 465.455 465.455c257.071 0 465.455-208.384 465.455-465.455S769.344 45.818 512.273 45.818L512.273 45.818zM511.5 931.834c-232.899 0-417.391-184.756-418.139-420.561 0-231.377 187.532-418.909 418.909-418.909S931.18 279.896 931.18 511.273C931.181 747.078 743.576 931.834 511.5 931.834z" p-id="6153" fill="#d4237a"></path><path d="M538.493 607.83" p-id="6154" fill="#d4237a"></path><path d="M550.587 456.004c55.406 0 110.83 0 166.236 0 0 1.167-279.978 391.973-279.978 391.973l50.747-279.98L321.354 567.997c0-1.164 279.979-390.222 279.979-391.972C601.333 177.774 552.359 425.035 550.587 456.004z" p-id="6155" fill="#d4237a"></path></svg>