<?xml version="1.0" standalone="no"?><!DOCTYPE svg PUBLIC "-//W3C//DTD SVG 1.1//EN" "http://www.w3.org/Graphics/SVG/1.1/DTD/svg11.dtd"><svg t="1481171454546" class="icon" style="" viewBox="0 0 1024 1024" version="1.1" xmlns="http://www.w3.org/2000/svg" p-id="2483" xmlns:xlink="http://www.w3.org/1999/xlink" width="200" height="200"><defs><style type="text/css"></style></defs><path d="M694.045 830.578c0 100.579-81.465 182.045-182.045 182.045-100.579 0-182.045-81.465-182.045-182.045 0-84.651 57.799-156.103 136.533-176.128 0-30.037 0-59.619-32.313-106.951-32.768-47.331-97.849-111.502-162.93-176.128-30.947 5.461-63.715 4.096-95.573-8.192-94.208-33.223-142.905-138.809-108.771-233.472 35.499-94.208 138.809-142.905 233.472-108.771 94.208 34.589 143.36 138.809 108.771 233.472-10.923 31.858-30.947 58.254-56.434 78.279 19.57 62.805 159.289 179.314 159.289 202.069 0-22.755 139.719-139.264 159.289-202.069-25.486-20.025-45.511-46.421-56.434-78.279-34.589-94.663 14.563-198.883 108.771-233.472 94.663-34.133 197.973 14.563 233.472 108.771 34.133 94.663-14.563 200.249-108.771 233.472-31.858 12.288-64.626 13.653-95.573 8.192-65.081 64.626-130.162 128.797-162.93 176.128-32.313 47.331-32.313 76.914-32.313 106.951 78.734 20.025 136.533 91.477 136.533 176.128M512 739.555c-50.062 0-91.022 40.96-91.022 91.022s40.96 91.022 91.022 91.022c50.062 0 91.022-40.96 91.022-91.022 0-50.062-40.96-91.022-91.022-91.022M268.971 106.496c-46.877-16.839-98.304 7.282-116.509 54.613-17.294 47.331 7.282 99.214 54.613 116.509 46.877 17.294 100.125-7.282 116.509-54.158 17.294-47.331-7.282-99.669-54.613-116.963M755.029 106.496c-47.331 17.294-71.907 69.632-54.613 116.963 16.384 46.877 69.632 71.453 116.509 54.158 47.331-17.294 71.907-69.177 54.613-116.509-18.205-47.331-69.632-71.453-116.509-54.613z" p-id="2484" fill="#1296db"></path></svg>